<?xml version="1.0" encoding="UTF-8" standalone="no"?>
<!DOCTYPE svg PUBLIC "-//W3C//DTD SVG 1.1//EN" "http://www.w3.org/Graphics/SVG/1.1/DTD/svg11.dtd">
<svg width="100%" height="100%" viewBox="0 0 209 210" version="1.1" xmlns="http://www.w3.org/2000/svg" xmlns:xlink="http://www.w3.org/1999/xlink" xml:space="preserve" style="fill-rule:evenodd;clip-rule:evenodd;stroke-linecap:round;stroke-linejoin:round;stroke-miterlimit:1.5;">
    <g transform="matrix(1,0,0,1,-152,-216)">
        <rect id="ArtBoard1" x="0" y="0" width="750" height="1334" style="fill:none;"/>
        <clipPath id="_clip1">
            <rect id="ArtBoard11" x="0" y="0" width="750" height="1334"/>
        </clipPath>
        <g clip-path="url(#_clip1)">
            <g id="Icons_Shitter_Like" transform="matrix(1.67251,0,0,2.38296,-106.057,-308.588)">
                <path d="M277.284,244.119C277.284,232.538 263.888,223.136 247.389,223.136L187.598,223.136C171.099,223.136 157.703,232.538 157.703,244.119L157.703,286.083C157.703,297.664 171.099,307.066 187.598,307.066L247.389,307.066C263.888,307.066 277.284,297.664 277.284,286.083L277.284,244.119Z" style="fill:white;"/>
                <clipPath id="_clip2">
                    <path d="M277.284,244.119C277.284,232.538 263.888,223.136 247.389,223.136L187.598,223.136C171.099,223.136 157.703,232.538 157.703,244.119L157.703,286.083C157.703,297.664 171.099,307.066 187.598,307.066L247.389,307.066C263.888,307.066 277.284,297.664 277.284,286.083L277.284,244.119Z"/>
                </clipPath>
                <g clip-path="url(#_clip2)">
                    <g transform="matrix(0.597903,0,0,0.419646,63.412,129.498)">
                        <path d="M213.285,293.478C222.636,276.673 241.339,276.673 250.69,285.075C260.041,293.478 260.041,310.282 250.69,327.086C244.144,339.69 227.312,352.293 213.285,360.695C199.258,352.293 182.426,339.69 175.88,327.086C166.529,310.282 166.529,293.478 175.88,285.075C185.231,276.673 203.934,276.673 213.285,293.478Z" style="fill:white;stroke:rgb(153,208,245);stroke-width:1px;"/>
                    </g>
                    <g transform="matrix(0.597903,0,0,0.419646,22.8665,155.776)">
                        <text x="257.704px" y="282.708px" style="font-family:'ArialMT', 'Arial', sans-serif;font-size:62px;fill:none;">LIKE</text>
                        <text x="257.704px" y="282.708px" style="font-family:'ArialMT', 'Arial', sans-serif;font-size:62px;fill:rgb(120,188,234);stroke:rgb(120,188,234);stroke-width:1px;stroke-linecap:butt;stroke-miterlimit:1.41421;">LIKE</text>
                    </g>
                </g>
                <path d="M277.284,244.119C277.284,232.538 263.888,223.136 247.389,223.136L187.598,223.136C171.099,223.136 157.703,232.538 157.703,244.119L157.703,286.083C157.703,297.664 171.099,307.066 187.598,307.066L247.389,307.066C263.888,307.066 277.284,297.664 277.284,286.083L277.284,244.119Z" style="fill:none;stroke:rgb(153,208,245);stroke-width:0.49px;"/>
            </g>
        </g>
    </g>
</svg>
